# Made in Blockbench 4.9.4
mtllib MOVING_PLATFORM.mtl

o floor
v 2.46875 0.25 2.140625
v 2.46875 0.25 -2.265625
v 2.46875 0 2.140625
v 2.46875 0 -2.265625
v -2.46875 0.25 2.140625
v -2.46875 0.25 -2.265625
v -2.46875 0 2.140625
v -2.46875 0 -2.265625
vt 0.302734375 0.6953125
vt 0 0.6953125
vt 0 0.6796875
vt 0.302734375 0.6796875
vt 0.607421875 0.6796875
vt 0.607421875 0.6953125
vt 0.3046875 0.6953125
vt 0.3046875 0.6796875
vt 0 0.697265625
vt 0.255859375 0.697265625
vt 0.255859375 1
vt 0 1
vt 0.513671875 0.697265625
vt 0.513671875 1
vt 0.2578125 1
vt 0.2578125 0.697265625
vt 0.255859375 0.662109375
vt 0.255859375 0.677734375
vt 0 0.677734375
vt 0 0.662109375
vt 0.513671875 0.677734375
vt 0.2578125 0.677734375
vt 0.2578125 0.662109375
vt 0.513671875 0.662109375
vn 1 0 0
vn -1 0 0
vn 0 1 0
vn 0 -1 0
vn 0 0 1
vn 0 0 -1
usemtl m_004de7bd-fddf-d14b-e447-5932b896a63a
f 2/1/1 1/2/1 3/3/1 4/4/1
f 7/5/2 5/6/2 6/7/2 8/8/2
f 5/9/3 1/10/3 2/11/3 6/12/3
f 4/13/4 3/14/4 7/15/4 8/16/4
f 3/17/5 1/18/5 5/19/5 7/20/5
f 6/21/6 2/22/6 4/23/6 8/24/6