# Made in Blockbench 4.9.4
mtllib RUS_EMPIRE.mtl

o cuboid
v 0.5 1.78125 0.015625
v 0.5 1.78125 -0.015625
v 0.5 0 0.015625
v 0.5 0 -0.015625
v -0.5 1.78125 0.015625
v -0.5 1.78125 -0.015625
v -0.5 0 0.015625
v -0.5 0 -0.015625
v -0.16666666666666674 1.78125 -0.015625
v -0.16666666666666674 0 -0.015625
v 0.16666666666666663 1.78125 -0.015625
v 0.16666666666666663 0 -0.015625
v -0.16666666666666674 0 0.015625
v 0.16666666666666663 0 0.015625
v -0.16666666666666674 1.78125 0.015625
v 0.16666666666666663 1.78125 0.015625
v -0.16666666666666674 0.890625 -0.015625
v -0.5 0.890625 -0.015625
v -0.5 0.890625 0.015625
v -0.16666666666666674 0.890625 0.015625
v 0.16666666666666663 0.890625 0.015625
v 0.5 0.890625 0.015625
v 0.5 0.890625 -0.015625
v 0.16666666666666663 0.890625 -0.015625
v -0.16666666666666674 1.3359375 -0.015625
v -0.5 1.3359375 -0.015625
v -0.5 1.3359375 0.015625
v -0.16666666666666674 1.3359375 0.015625
v 0.16666666666666663 1.3359375 0.015625
v 0.5 1.3359375 0.015625
v 0.5 1.3359375 -0.015625
v 0.16666666666666663 1.3359375 -0.015625
v -0.5 1.84375 0.015625
v -0.16666666666666674 1.84375 0.015625
v -0.16666666666666674 1.84375 -0.015625
v -0.5 1.84375 -0.015625
v 0.16666666666666663 1.84375 0.015625
v 0.16666666666666663 1.84375 -0.015625
v 0.5 1.84375 -0.015625
v 0.5 1.84375 0.015625
v -0.16666666666666674 1.84375 -0.046875
v 0.16666666666666663 1.84375 -0.046875
v 0.16666666666666663 1.78125 -0.046875
v -0.16666666666666674 1.78125 -0.046875
v 0.5 1.84375 -0.046875
v 0.5 1.78125 -0.046875
v -0.5 1.84375 -0.046875
v -0.5 1.78125 -0.046875
v 0.41666666666666663 1.84375 -0.0390625
v 0.24999999999999997 1.84375 -0.0390625
v 0.24999999999999997 1.84375 -0.015625
v 0.41666666666666663 1.84375 -0.015625
v 0.24999999999999997 1.84375 0.0078125
v 0.41666666666666663 1.84375 0.0078125
v 0.36979166666666663 1.9375 -0.0390625
v 0.296875 1.9375 -0.0390625
v 0.296875 1.9375 -0.015625
v 0.36979166666666663 1.9375 -0.015625
v 0.296875 1.9375 0.0078125
v 0.36979166666666663 1.9375 0.0078125
v -0.25000000000000006 1.84375 -0.0390625
v -0.4166666666666667 1.84375 -0.0390625
v -0.4166666666666667 1.84375 -0.015625
v -0.25000000000000006 1.84375 -0.015625
v -0.4166666666666667 1.84375 0.0078125
v -0.25000000000000006 1.84375 0.0078125
v -0.29687500000000006 1.9375 -0.0390625
v -0.3697916666666667 1.9375 -0.0390625
v -0.3697916666666667 1.9375 -0.015625
v -0.29687500000000006 1.9375 -0.015625
v -0.3697916666666667 1.9375 0.0078125
v -0.29687500000000006 1.9375 0.0078125
vt 0.2734375 0.0703125
vt 0.2734375 0.29296875
vt 0.265625 0.29296875
vt 0.265625 0.0703125
vt 0.3125 0.0703125
vt 0.3125 0.29296875
vt 0.3046875 0.29296875
vt 0.3046875 0.0703125
vt 0.55013046875 0.666015625
vt 0.53190078125 0.666015625
vt 0.53190078125 0.66015625
vt 0.55013046875 0.66015625
vt 0.578125 0.5
vt 0.4947921875 0.5
vt 0.4947921875 0.4921875
vt 0.578125 0.4921875
vt 0.25 0.5390625
vt 0.25 0.76171875
vt 0.1666671875 0.76171875
vt 0.1666671875 0.5390625
vt 0.3515625 0.5546875
vt 0.3515625 0.77734375
vt 0.265625 0.77734375
vt 0.265625 0.5546875
vt 0.515625 0.5546875
vt 0.515625 0.77734375
vt 0.4296875 0.77734375
vt 0.4296875 0.5546875
vt 0.4296875 0.5546875
vt 0.4296875 0.77734375
vt 0.3515625 0.77734375
vt 0.3515625 0.5546875
vt 0.328125 0.4921875
vt 0.4114578125 0.4921875
vt 0.4114578125 0.5
vt 0.328125 0.5
vt 0.4114578125 0.4921875
vt 0.4947921875 0.4921875
vt 0.4947921875 0.5
vt 0.4114578125 0.5
vt 0.08333281249999999 0.5390625
vt 0.08333281249999999 0.76171875
vt 0 0.76171875
vt 0 0.5390625
vt 0.1666671875 0.5390625
vt 0.1666671875 0.76171875
vt 0.08333281249999999 0.76171875
vt 0.08333281249999999 0.5390625
vt 0.36002578125 0.45703125
vt 0.37825546875 0.45703125
vt 0.37825546875 0.462890625
vt 0.36002578125 0.462890625
vt 0.4114578125 0.515625
vt 0.4947921875 0.515625
vt 0.4947921875 0.5234375
vt 0.4114578125 0.5234375
vt 0.515625 0.77734375
vt 0.515625 0.88671875
vt 0.4296875 0.88671875
vt 0.4296875 0.77734375
vt 0.3125 0.29296875
vt 0.3125 0.404296875
vt 0.3046875 0.404296875
vt 0.3046875 0.29296875
vt 0.08333281249999999 0.76171875
vt 0.08333281249999999 0.873046875
vt 0 0.873046875
vt 0 0.76171875
vt 0.1666671875 0.76171875
vt 0.1666671875 0.873046875
vt 0.08333281249999999 0.873046875
vt 0.08333281249999999 0.76171875
vt 0.25 0.76171875
vt 0.25 0.873046875
vt 0.1666671875 0.873046875
vt 0.1666671875 0.76171875
vt 0.2734375 0.29296875
vt 0.2734375 0.404296875
vt 0.265625 0.404296875
vt 0.265625 0.29296875
vt 0.3515625 0.77734375
vt 0.3515625 0.888671875
vt 0.265625 0.888671875
vt 0.265625 0.77734375
vt 0.4296875 0.77734375
vt 0.4296875 0.888671875
vt 0.3515625 0.888671875
vt 0.3515625 0.77734375
vt 0.4296875 1
vt 0.4296875 0.88671875
vt 0.515625 0.88671875
vt 0.515625 1
vt 0.3046875 0.515625
vt 0.3046875 0.404296875
vt 0.3125 0.404296875
vt 0.3125 0.515625
vt 0 0.984375
vt 0 0.873046875
vt 0.08333281249999999 0.873046875
vt 0.08333281249999999 0.984375
vt 0.08333281249999999 0.984375
vt 0.08333281249999999 0.873046875
vt 0.1666671875 0.873046875
vt 0.1666671875 0.984375
vt 0.1666671875 0.984375
vt 0.1666671875 0.873046875
vt 0.25 0.873046875
vt 0.25 0.984375
vt 0.265625 0.515625
vt 0.265625 0.404296875
vt 0.2734375 0.404296875
vt 0.2734375 0.515625
vt 0.265625 1
vt 0.265625 0.888671875
vt 0.3515625 0.888671875
vt 0.3515625 1
vt 0.3515625 1
vt 0.3515625 0.888671875
vt 0.4296875 0.888671875
vt 0.4296875 1
vt 0.08333281249999999 1
vt 0 1
vt 0 0.984375
vt 0.08333281249999999 0.984375
vt 0.25 0.515625
vt 0.1666671875 0.515625
vt 0.1666671875 0.5
vt 0.25 0.5
vt 0.3125 0.53125
vt 0.3046875 0.53125
vt 0.3046875 0.515625
vt 0.3125 0.515625
vt 0.1666671875 1
vt 0.08333281249999999 1
vt 0.08333281249999999 0.984375
vt 0.1666671875 0.984375
vt 0.1666671875 0.515625
vt 0.08333281249999999 0.515625
vt 0.08333281249999999 0.5
vt 0.1666671875 0.5
vt 0.08333281249999999 0.515625
vt 0 0.515625
vt 0 0.5
vt 0.08333281249999999 0.5
vt 0.25 1
vt 0.1666671875 1
vt 0.1666671875 0.984375
vt 0.25 0.984375
vt 0.2734375 0.53125
vt 0.265625 0.53125
vt 0.265625 0.515625
vt 0.2734375 0.515625
vt 0.4947921875 0.53125
vt 0.4114578125 0.53125
vt 0.4114578125 0.5234375
vt 0.4947921875 0.5234375
vt 0.08333281249999999 0.4765625
vt 0.1666671875 0.4765625
vt 0.1666671875 0.484375
vt 0.08333281249999999 0.484375
vt 0.55013046875 0.671875
vt 0.53190078125 0.671875
vt 0.53190078125 0.666015625
vt 0.55013046875 0.666015625
vt 0.28125 0.515625
vt 0.28125 0.53125
vt 0.2734375 0.53125
vt 0.2734375 0.515625
vt 0.1666671875 0.4765625
vt 0.25 0.4765625
vt 0.25 0.484375
vt 0.1666671875 0.484375
vt 0.37825546875 0.46875
vt 0.36002578125 0.46875
vt 0.36002578125 0.462890625
vt 0.37825546875 0.462890625
vt 0 0.4765625
vt 0.08333281249999999 0.4765625
vt 0.08333281249999999 0.484375
vt 0 0.484375
vt 0.296875 0.53125
vt 0.296875 0.515625
vt 0.3046875 0.515625
vt 0.3046875 0.53125
vt 0.515625 0.529296875
vt 0.5572921875 0.529296875
vt 0.578125 0.53125
vt 0.4947921875 0.53125
vt 0.515625 0.5234375
vt 0.515625 0.529296875
vt 0.4947921875 0.53125
vt 0.4947921875 0.5234375
vt 0.5572921875 0.529296875
vt 0.5572921875 0.5234375
vt 0.578125 0.5234375
vt 0.578125 0.53125
vt 0.515625 0.517578125
vt 0.515625 0.5234375
vt 0.4947921875 0.5234375
vt 0.4947921875 0.515625
vt 0.5572921875 0.517578125
vt 0.515625 0.517578125
vt 0.4947921875 0.515625
vt 0.578125 0.515625
vt 0.5572921875 0.5234375
vt 0.5572921875 0.517578125
vt 0.578125 0.515625
vt 0.578125 0.5234375
vt 0.56184921875 1
vt 0.54361953125 1
vt 0.53190078125 0.96875
vt 0.57356796875 0.96875
vt 0.537109375 0.765625
vt 0.53125 0.765625
vt 0.53125 0.7394218749999999
vt 0.537109375 0.7394218749999999
vt 0.54296875 0.71875
vt 0.537109375 0.71875
vt 0.537109375 0.692546875
vt 0.54296875 0.692546875
vt 0.54296875 0.765625
vt 0.537109375 0.765625
vt 0.537109375 0.7394218749999999
vt 0.54296875 0.7394218749999999
vt 0.56184921875 0.953125
vt 0.54361953125 0.953125
vt 0.53190078125 0.921875
vt 0.57356796875 0.921875
vt 0.537109375 0.71875
vt 0.53125 0.71875
vt 0.53125 0.692546875
vt 0.537109375 0.692546875
vt 0.3489578125 0.529296875
vt 0.390625 0.529296875
vt 0.4114578125 0.53125
vt 0.328125 0.53125
vt 0.3489578125 0.5234375
vt 0.3489578125 0.529296875
vt 0.328125 0.53125
vt 0.328125 0.5234375
vt 0.390625 0.529296875
vt 0.390625 0.5234375
vt 0.4114578125 0.5234375
vt 0.4114578125 0.53125
vt 0.390625 0.517578125
vt 0.3489578125 0.517578125
vt 0.328125 0.515625
vt 0.4114578125 0.515625
vt 0.390625 0.5234375
vt 0.390625 0.517578125
vt 0.4114578125 0.515625
vt 0.4114578125 0.5234375
vt 0.3489578125 0.517578125
vt 0.3489578125 0.5234375
vt 0.328125 0.5234375
vt 0.328125 0.515625
vt 0.56184921875 0.90625
vt 0.54361953125 0.90625
vt 0.53190078125 0.875
vt 0.57356796875 0.875
vt 0.333984375 0.46875
vt 0.328125 0.46875
vt 0.328125 0.442546875
vt 0.333984375 0.442546875
vt 0.54296875 0.8125
vt 0.537109375 0.8125
vt 0.537109375 0.7862968749999999
vt 0.54296875 0.7862968749999999
vt 0.56184921875 0.859375
vt 0.54361953125 0.859375
vt 0.53190078125 0.828125
vt 0.57356796875 0.828125
vt 0.537109375 0.8125
vt 0.53125 0.8125
vt 0.53125 0.7862968749999999
vt 0.537109375 0.7862968749999999
vt 0.33984375 0.46875
vt 0.333984375 0.46875
vt 0.333984375 0.442546875
vt 0.33984375 0.442546875
vn 1 0 0
vn -1 0 0
vn 0 1 0
vn 0 -1 0
vn 0 0 1
vn 0 0 -1
vn 0 0 -1
vn 0 0 -1
vn 0 -1 0
vn 0 -1 0
vn 0 0 1
vn 0 0 1
vn 0 1 0
vn 0 1 0
vn 0 0 -1
vn -1 0 0
vn 0 0 1
vn 0 0 1
vn 0 0 1
vn 1 0 0
vn 0 0 -1
vn 0 0 -1
vn 0 0 -1
vn -1 0 0
vn 0 0 1
vn 0 0 1
vn 0 0 1
vn 1 0 0
vn 0 0 -1
vn 0 0 -1
vn 0 0 1
vn 0 0 -1
vn -1 0 0
vn 0 0 1
vn 0 0 -1
vn 0 0 -1
vn 0 0 1
vn 1 0 0
vn 0 1 0
vn 0 -1 0
vn 0 1 0
vn 1 0 0
vn 0 -1 0
vn 0 1 0
vn 0 -1 0
vn -1 0 0
vn 0 1 0
vn 0 1 0
vn 0 1 0
vn 0 1 0
vn 0 1 0
vn 0 1 0
vn 0 0 -1
vn -0.8944271909999159 0.4472135954999582 0
vn 0.8944271909999161 0.44721359549995804 0
vn -0.8944271909999159 0.4472135954999582 0
vn 0 0 1
vn 0.8944271909999161 0.44721359549995804 0
vn 0 1 0
vn 0 1 0
vn 0 1 0
vn 0 1 0
vn 0 1 0
vn 0 1 0
vn 0 0 -1
vn -0.8944271909999161 0.44721359549995804 0
vn 0.8944271909999161 0.44721359549995804 0
vn 0 0 1
vn 0.8944271909999161 0.44721359549995804 0
vn -0.8944271909999161 0.44721359549995804 0
usemtl m_78bb4885-ec50-e556-d173-d8f3c56a0371
f 4/1/1 23/2/1 22/3/1 3/4/1
f 7/5/2 19/6/2 18/7/2 8/8/2
f 58/9/3 57/10/3 59/11/3 60/12/3
f 3/13/4 14/14/4 12/15/4 4/16/4
f 3/17/5 22/18/5 21/19/5 14/20/5
f 12/21/6 24/22/6 23/23/6 4/24/6
f 8/25/7 18/26/7 17/27/7 10/28/7
f 10/29/8 17/30/8 24/31/8 12/32/8
f 8/33/9 10/34/9 13/35/9 7/36/9
f 10/37/10 12/38/10 14/39/10 13/40/10
f 13/41/11 20/42/11 19/43/11 7/44/11
f 14/45/12 21/46/12 20/47/12 13/48/12
f 71/49/13 72/50/13 70/51/13 69/52/13
f 34/53/14 37/54/14 38/55/14 35/56/14
f 18/57/15 26/58/15 25/59/15 17/60/15
f 19/61/16 27/62/16 26/63/16 18/64/16
f 20/65/17 28/66/17 27/67/17 19/68/17
f 21/69/18 29/70/18 28/71/18 20/72/18
f 22/73/19 30/74/19 29/75/19 21/76/19
f 23/77/20 31/78/20 30/79/20 22/80/20
f 24/81/21 32/82/21 31/83/21 23/84/21
f 17/85/22 25/86/22 32/87/22 24/88/22
f 9/89/23 25/90/23 26/91/23 6/92/23
f 6/93/24 26/94/24 27/95/24 5/96/24
f 5/97/25 27/98/25 28/99/25 15/100/25
f 15/101/26 28/102/26 29/103/26 16/104/26
f 16/105/27 29/106/27 30/107/27 1/108/27
f 1/109/28 30/110/28 31/111/28 2/112/28
f 2/113/29 31/114/29 32/115/29 11/116/29
f 11/117/30 32/118/30 25/119/30 9/120/30
f 34/121/31 33/122/31 5/123/31 15/124/31
f 47/125/32 41/126/32 44/127/32 48/128/32
f 33/129/33 36/130/33 6/131/33 5/132/33
f 37/133/34 34/134/34 15/135/34 16/136/34
f 41/137/35 42/138/35 43/139/35 44/140/35
f 42/141/36 45/142/36 46/143/36 43/144/36
f 40/145/37 37/146/37 16/147/37 1/148/37
f 39/149/38 40/150/38 1/151/38 2/152/38
f 42/153/39 41/154/39 35/155/39 38/156/39
f 44/157/40 43/158/40 11/159/40 9/160/40
f 55/161/41 56/162/41 57/163/41 58/164/41
f 46/165/42 45/166/42 39/167/42 2/168/42
f 43/169/43 46/170/43 2/171/43 11/172/43
f 67/173/44 68/174/44 69/175/44 70/176/44
f 48/177/45 44/178/45 9/179/45 6/180/45
f 47/181/46 48/182/46 6/183/46 36/184/46
f 50/185/47 49/186/47 45/187/47 42/188/47
f 51/189/48 50/190/48 42/191/48 38/192/48
f 49/193/49 52/194/49 39/195/49 45/196/49
f 53/197/50 51/198/50 38/199/50 37/200/50
f 54/201/51 53/202/51 37/203/51 40/204/51
f 52/205/52 54/206/52 40/207/52 39/208/52
f 56/209/53 55/210/53 49/211/53 50/212/53
f 57/213/54 56/214/54 50/215/54 51/216/54
f 55/217/55 58/218/55 52/219/55 49/220/55
f 59/221/56 57/222/56 51/223/56 53/224/56
f 60/225/57 59/226/57 53/227/57 54/228/57
f 58/229/58 60/230/58 54/231/58 52/232/58
f 62/233/59 61/234/59 41/235/59 47/236/59
f 63/237/60 62/238/60 47/239/60 36/240/60
f 61/241/61 64/242/61 35/243/61 41/244/61
f 66/245/62 65/246/62 33/247/62 34/248/62
f 64/249/63 66/250/63 34/251/63 35/252/63
f 65/253/64 63/254/64 36/255/64 33/256/64
f 68/257/65 67/258/65 61/259/65 62/260/65
f 69/261/66 68/262/66 62/263/66 63/264/66
f 67/265/67 70/266/67 64/267/67 61/268/67
f 72/269/68 71/270/68 65/271/68 66/272/68
f 70/273/69 72/274/69 66/275/69 64/276/69
f 71/277/70 69/278/70 63/279/70 65/280/70