# Made in Blockbench 4.9.4
mtllib FABRIC_WALL.mtl

o cuboid
v 1.6875 2.890625 0.046875
v 1.6875 2.890625 -0.21875
v 1.6875 0.015625 0.046875
v 1.6875 0.015625 -0.21875
v -1.6875 2.890625 0.046875
v -1.6875 2.890625 -0.21875
v -1.6875 0.015625 0.046875
v -1.6875 0.015625 -0.21875
v 1.6875 0.453125 -0.21875
v -1.6875 0.453125 -0.21875
v -1.6875 0.453125 0.046875
v 1.6875 0.453125 0.046875
v 1.6875 2.515625 -0.21875
v -1.6875 2.515625 -0.21875
v -1.6875 2.515625 0.046875
v 1.6875 2.515625 0.046875
v 1.6875 2.890625 -0.21875
v 1.6875 2.515625 -0.21875
v -1.6875 2.515625 -0.21875
v -1.6875 2.890625 -0.21875
v -1.6875 0.015625 -0.21875
v 1.6875 0.453125 -0.21875
v -1.6875 0.453125 -0.21875
v 1.6875 0.015625 -0.21875
vt 0.462890625 0.4453125
vt 0.462890625 0.5
vt 0.4296875 0.5
vt 0.4296875 0.4453125
vt 0.509765625 0.4453125
vt 0.509765625 0.5
vt 0.4765625 0.5
vt 0.4765625 0.4453125
vt 0.4296875 0.8515625
vt 0.8515625 0.8515625
vt 0.8515625 0.8828125
vt 0.4296875 0.8828125
vt 0.8515625 0.8125
vt 0.8515625 0.84375
vt 0.4296875 0.84375
vt 0.4296875 0.8125
vt 0.421875 0.640625
vt 0.421875 0.6953125
vt 0 0.6953125
vt 0 0.640625
vt 0.8515625 0.9453125
vt 0.8515625 1
vt 0.4296875 1
vt 0.4296875 0.9453125
vt 0.421875 0.375
vt 0.421875 0.6328125
vt 0 0.6328125
vt 0 0.375
vt 0.509765625 0.5
vt 0.509765625 0.7578125
vt 0.4765625 0.7578125
vt 0.4765625 0.5
vt 0.421875 0.6953125
vt 0.421875 0.953125
vt 0 0.953125
vt 0 0.6953125
vt 0.462890625 0.5
vt 0.462890625 0.7578125
vt 0.4296875 0.7578125
vt 0.4296875 0.5
vt 0.4296875 0.9375
vt 0.4296875 0.890625
vt 0.8515625 0.890625
vt 0.8515625 0.9375
vt 0.4765625 0.8046875
vt 0.4765625 0.7578125
vt 0.509765625 0.7578125
vt 0.509765625 0.8046875
vt 0 1
vt 0 0.953125
vt 0.421875 0.953125
vt 0.421875 1
vt 0.4296875 0.8046875
vt 0.4296875 0.7578125
vt 0.462890625 0.7578125
vt 0.462890625 0.8046875
vt 0 1
vt 0 1
vt 0 1
vt 0 1
vt 0 1
vt 0.421875 1
vt 0.421875 1
vt 0 1
vt 0 1
vt 0 1
vt 0 1
vt 0 1
vt 0.421875 1
vt 0 1
vt 0 1
vt 0.421875 1
vt 0 1
vt 0 1
vt 0 1
vt 0 1
vt 0.421875 1
vt 0 1
vt 0 1
vt 0.421875 1
vt 0 1
vt 0 1
vt 0 1
vt 0 1
vt 0 1
vt 0.421875 1
vt 0.421875 1
vt 0 1
vn 1 0 0
vn -1 0 0
vn 0 1 0
vn 0 -1 0
vn 0 0 1
vn 0 0 -1
vn 0 0 -1
vn -1 0 0
vn 0 0 1
vn 1 0 0
vn 0 0 -1
vn -1 0 0
vn 0 0 1
vn 1 0 0
vn 0 0 0
vn 0 0 0
vn 0 0 0
vn 0 0 0
vn 0 0 0
vn 0 0 0
vn 0 0 0
vn 0 0 0
usemtl m_b1e5c70d-959a-b6f8-86c0-40a7a9f9907c
f 4/1/1 9/2/1 12/3/1 3/4/1
f 7/5/2 11/6/2 10/7/2 8/8/2
f 5/9/3 1/10/3 2/11/3 6/12/3
f 4/13/4 3/14/4 7/15/4 8/16/4
f 3/17/5 12/18/5 11/19/5 7/20/5
f 21/21/6 23/22/6 22/23/6 24/24/6
f 10/25/7 14/26/7 13/27/7 9/28/7
f 11/29/8 15/30/8 14/31/8 10/32/8
f 12/33/9 16/34/9 15/35/9 11/36/9
f 9/37/10 13/38/10 16/39/10 12/40/10
f 17/41/11 18/42/11 19/43/11 20/44/11
f 6/45/12 14/46/12 15/47/12 5/48/12
f 5/49/13 15/50/13 16/51/13 1/52/13
f 1/53/14 16/54/14 13/55/14 2/56/14
f 18/57/15 17/58/15 2/59/15 13/60/15
f 19/61/16 18/62/16 13/63/16 14/64/16
f 20/65/17 19/66/17 14/67/17 6/68/17
f 17/69/18 20/70/18 6/71/18 2/72/18
f 23/73/19 21/74/19 8/75/19 10/76/19
f 22/77/20 23/78/20 10/79/20 9/80/20
f 24/81/21 22/82/21 9/83/21 4/84/21
f 21/85/22 24/86/22 4/87/22 8/88/22