# Made in Blockbench 4.9.4
mtllib VENT_PIPE.mtl

o cuboid
v 0.28125 0.453125 0.78125
v 0.28125 0.453125 -0.21875
v 0.28125 0.015625 0.78125
v 0.28125 0.015625 -0.21875
v -0.375 0.453125 0.78125
v -0.375 0.453125 -0.21875
v -0.375 0.015625 0.78125
v -0.375 0.015625 -0.21875
v -0.40625 0.484375 0.78125
v -0.40625 0.484375 -0.21875
v -0.40625 -0.015625 0.78125
v -0.40625 -0.015625 -0.21875
v 0.3125 -0.015625 0.78125
v 0.3125 -0.015625 -0.21875
v 0.3125 0.484375 0.78125
v 0.3125 0.484375 -0.21875
vt 0.25 0.609375
vt 0.25 0.734375
vt 0 0.734375
vt 0 0.609375
vt 0.515625 0.734375
vt 0.265625 0.734375
vt 0.265625 0.609375
vt 0.515625 0.609375
vt 0.1875 0.75
vt 0.1875 1
vt 0 1
vt 0 0.75
vt 0.203125 0.75
vt 0.390625 0.75
vt 0.390625 1
vt 0.203125 1
vt 0 0.59375
vt 0 0.46875
vt 0.0078125 0.4765625
vt 0.0078125 0.5859375
vt 0.5859375 0.875
vt 0.5859375 1
vt 0.578125 0.9921875
vt 0.578125 0.8828125
vt 0 0.46875
vt 0.1796875 0.46875
vt 0.171875 0.4765625
vt 0.0078125 0.4765625
vt 0.40625 0.875
vt 0.5859375 0.875
vt 0.578125 0.8828125
vt 0.4140625 0.8828125
vt 0.1796875 0.59375
vt 0 0.59375
vt 0.0078125 0.5859375
vt 0.171875 0.5859375
vt 0.5859375 1
vt 0.40625 1
vt 0.4140625 0.9921875
vt 0.578125 0.9921875
vt 0.1796875 0.46875
vt 0.1796875 0.59375
vt 0.171875 0.5859375
vt 0.171875 0.4765625
vt 0.40625 1
vt 0.40625 0.875
vt 0.4140625 0.8828125
vt 0.4140625 0.9921875
vn -1 0 0
vn 1 0 0
vn 0 -1 0
vn 0 1 0
vn 0 0 1
vn 0 0 -1
vn 0 0 1
vn 0 0 -1
vn 0 0 1
vn 0 0 -1
vn 0 0 1
vn 0 0 -1
usemtl m_6249a6cd-dfbb-fdc1-6ade-1da0886f800e
f 13/1/1 15/2/1 16/3/1 14/4/1
f 10/5/2 9/6/2 11/7/2 12/8/2
f 16/9/3 15/10/3 9/11/3 10/12/3
f 11/13/4 13/14/4 14/15/4 12/16/4
f 9/17/5 11/18/5 7/19/5 5/20/5
f 12/21/6 10/22/6 6/23/6 8/24/6
f 11/25/7 13/26/7 3/27/7 7/28/7
f 14/29/8 12/30/8 8/31/8 4/32/8
f 15/33/9 9/34/9 5/35/9 1/36/9
f 10/37/10 16/38/10 2/39/10 6/40/10
f 13/41/11 15/42/11 1/43/11 3/44/11
f 16/45/12 14/46/12 4/47/12 2/48/12