# Made in Blockbench 4.9.4
mtllib FACTORY_WALL_VENT.mtl

o cuboid
v 1.6875 2.890625 0.046875
v 1.6875 2.890625 -0.21875
v 1.6875 0.015625 0.046875
v 1.6875 0.015625 -0.21875
v -1.6875 2.890625 0.046875
v -1.6875 2.890625 -0.21875
v -1.6875 0.015625 0.046875
v -1.6875 0.015625 -0.21875
v 1.6875 0.453125 -0.21875
v -1.6875 0.453125 -0.21875
v -1.6875 0.453125 0.046875
v 1.6875 0.453125 0.046875
v 1.6875 2.515625 -0.21875
v -1.6875 2.515625 -0.21875
v -1.6875 2.515625 0.046875
v 1.6875 2.515625 0.046875
v 1.6875 2.890625 -0.28125
v 1.6875 2.515625 -0.28125
v -1.6875 2.515625 -0.28125
v -1.6875 2.890625 -0.28125
v -1.6875 0.015625 -0.28125
v 1.6875 0.453125 -0.28125
v -1.6875 0.453125 -0.28125
v 1.6875 0.015625 -0.28125
v -1.0125000000000002 0.453125 -0.28125
v -1.0125000000000002 0.015625 -0.28125
v -0.33750000000000036 0.453125 -0.28125
v -0.33750000000000036 0.015625 -0.28125
v 0.3374999999999997 0.453125 -0.28125
v 0.3374999999999997 0.015625 -0.28125
v 1.0124999999999997 0.453125 -0.28125
v 1.0124999999999997 0.015625 -0.28125
v -1.0125000000000002 0.015625 -0.21875
v -0.33750000000000036 0.015625 -0.21875
v 0.3374999999999997 0.015625 -0.21875
v 1.0124999999999997 0.015625 -0.21875
v -1.0125000000000002 0.015625 0.046875
v -0.33750000000000036 0.015625 0.046875
v 0.3374999999999997 0.015625 0.046875
v 1.0124999999999997 0.015625 0.046875
v -1.0125000000000002 0.453125 0.046875
v -0.33750000000000036 0.453125 0.046875
v 0.3374999999999997 0.453125 0.046875
v 1.0124999999999997 0.453125 0.046875
v -1.0125000000000002 2.515625 0.046875
v -0.33750000000000036 2.515625 0.046875
v 0.3374999999999997 2.515625 0.046875
v 1.0124999999999997 2.515625 0.046875
v -1.0125000000000002 2.890625 0.046875
v -0.33750000000000036 2.890625 0.046875
v 0.3374999999999997 2.890625 0.046875
v 1.0124999999999997 2.890625 0.046875
v -1.0125000000000002 2.890625 -0.21875
v -0.33750000000000036 2.890625 -0.21875
v 0.3374999999999997 2.890625 -0.21875
v 1.0124999999999997 2.890625 -0.21875
v -1.0125000000000002 2.890625 -0.28125
v -0.33750000000000036 2.890625 -0.28125
v 0.3374999999999997 2.890625 -0.28125
v 1.0124999999999997 2.890625 -0.28125
v -1.0125000000000002 2.515625 -0.28125
v -0.33750000000000036 2.515625 -0.28125
v 0.3374999999999997 2.515625 -0.28125
v 1.0124999999999997 2.515625 -0.28125
v -1.0125000000000002 2.515625 -0.21875
v -0.33750000000000036 2.515625 -0.21875
v 0.3374999999999997 2.515625 -0.21875
v 1.0124999999999997 2.515625 -0.21875
v -1.0125000000000002 0.453125 -0.21875
v -0.33750000000000036 0.453125 -0.21875
v 0.3374999999999997 0.453125 -0.21875
v 1.0124999999999997 0.453125 -0.21875
vt 0.462890625 0.4765625
vt 0.462890625 0.53125
vt 0.4296875 0.53125
vt 0.4296875 0.4765625
vt 0.517578125 0.4140625
vt 0.517578125 0.46875
vt 0.484375 0.46875
vt 0.484375 0.4140625
vt 0.8515625 0.9375
vt 0.7671875 0.9375
vt 0.7671875 0.904296875
vt 0.8515625 0.904296875
vt 0.8515625 0.890625
vt 0.7671875 0.890625
vt 0.7671875 0.857421875
vt 0.8515625 0.857421875
vt 0.421875 0.6953125
vt 0.3375 0.6953125
vt 0.3375 0.640625
vt 0.421875 0.640625
vt 0.484765625 0.78125
vt 0.569140625 0.78125
vt 0.569140625 0.8359375
vt 0.484765625 0.8359375
vt 0 0.375
vt 0.084375 0.375
vt 0.084375 0.6328125
vt 0 0.6328125
vt 0.517578125 0.46875
vt 0.517578125 0.7265625
vt 0.484375 0.7265625
vt 0.484375 0.46875
vt 0.421875 0.953125
vt 0.3375 0.953125
vt 0.3375 0.6953125
vt 0.421875 0.6953125
vt 0.462890625 0.53125
vt 0.462890625 0.7890625
vt 0.4296875 0.7890625
vt 0.4296875 0.53125
vt 0.4296875 0.953125
vt 0.5140625 0.953125
vt 0.5140625 1
vt 0.4296875 1
vt 0.484375 0.7734375
vt 0.484375 0.7265625
vt 0.517578125 0.7265625
vt 0.517578125 0.7734375
vt 0.421875 1
vt 0.3375 1
vt 0.3375 0.953125
vt 0.421875 0.953125
vt 0.4296875 0.8359375
vt 0.4296875 0.7890625
vt 0.462890625 0.7890625
vt 0.462890625 0.8359375
vt 0.470703125 0.7890625
vt 0.470703125 0.8359375
vt 0.462890625 0.8359375
vt 0.462890625 0.7890625
vt 0.953125 0.7109375
vt 0.86875 0.7109375
vt 0.86875 0.703125
vt 0.953125 0.703125
vt 0.4765625 0.7734375
vt 0.4765625 0.7265625
vt 0.484375 0.7265625
vt 0.484375 0.7734375
vt 0.8515625 0.9453125
vt 0.7671875 0.9453125
vt 0.7671875 0.9375
vt 0.8515625 0.9375
vt 0.4765625 0.46875
vt 0.4765625 0.4140625
vt 0.484375 0.4140625
vt 0.484375 0.46875
vt 0.784765625 0.53125
vt 0.700390625 0.53125
vt 0.700390625 0.5234375
vt 0.784765625 0.5234375
vt 0.470703125 0.4765625
vt 0.470703125 0.53125
vt 0.462890625 0.53125
vt 0.462890625 0.4765625
vt 0.8515625 0.857421875
vt 0.7671875 0.857421875
vt 0.7671875 0.849609375
vt 0.8515625 0.849609375
vt 0.6171875 0.7734375
vt 0.53125 0.7734375
vt 0.53125 0.71875
vt 0.6171875 0.71875
vt 0.737890625 0.8359375
vt 0.653515625 0.8359375
vt 0.653515625 0.78125
vt 0.737890625 0.78125
vt 0.653515625 0.8359375
vt 0.569140625 0.8359375
vt 0.569140625 0.78125
vt 0.653515625 0.78125
vt 0.4296875 0.849609375
vt 0.5140625 0.849609375
vt 0.5140625 0.857421875
vt 0.4296875 0.857421875
vt 0.5984375 0.857421875
vt 0.5984375 0.849609375
vt 0.5140625 0.849609375
vt 0.5140625 0.857421875
vt 0.5984375 0.849609375
vt 0.6828125 0.849609375
vt 0.6828125 0.857421875
vt 0.5984375 0.857421875
vt 0.6828125 0.849609375
vt 0.7671875 0.849609375
vt 0.7671875 0.857421875
vt 0.6828125 0.857421875
vt 0.4296875 0.857421875
vt 0.5140625 0.857421875
vt 0.5140625 0.890625
vt 0.4296875 0.890625
vt 0.5984375 0.890625
vt 0.5984375 0.857421875
vt 0.5140625 0.857421875
vt 0.5140625 0.890625
vt 0.5984375 0.857421875
vt 0.6828125 0.857421875
vt 0.6828125 0.890625
vt 0.5984375 0.890625
vt 0.6828125 0.857421875
vt 0.7671875 0.857421875
vt 0.7671875 0.890625
vt 0.6828125 0.890625
vt 0 0.640625
vt 0.084375 0.640625
vt 0.084375 0.6953125
vt 0 0.6953125
vt 0.16875 0.640625
vt 0.253125 0.640625
vt 0.253125 0.6953125
vt 0.16875 0.6953125
vt 0.253125 0.640625
vt 0.3375 0.640625
vt 0.3375 0.6953125
vt 0.253125 0.6953125
vt 0 0.6953125
vt 0.084375 0.6953125
vt 0.084375 0.953125
vt 0 0.953125
vt 0.084375 0.6953125
vt 0.16875 0.6953125
vt 0.16875 0.953125
vt 0.084375 0.953125
vt 0.16875 0.6953125
vt 0.253125 0.6953125
vt 0.253125 0.953125
vt 0.16875 0.953125
vt 0.253125 0.6953125
vt 0.3375 0.6953125
vt 0.3375 0.953125
vt 0.253125 0.953125
vt 0 0.953125
vt 0.084375 0.953125
vt 0.084375 1
vt 0 1
vt 0.084375 0.953125
vt 0.16875 0.953125
vt 0.16875 1
vt 0.084375 1
vt 0.16875 0.953125
vt 0.253125 0.953125
vt 0.253125 1
vt 0.16875 1
vt 0.253125 0.953125
vt 0.3375 0.953125
vt 0.3375 1
vt 0.253125 1
vt 0.4296875 0.904296875
vt 0.5140625 0.904296875
vt 0.5140625 0.9375
vt 0.4296875 0.9375
vt 0.5140625 0.904296875
vt 0.5984375 0.904296875
vt 0.5984375 0.9375
vt 0.5140625 0.9375
vt 0.5984375 0.904296875
vt 0.6828125 0.904296875
vt 0.6828125 0.9375
vt 0.5984375 0.9375
vt 0.6828125 0.904296875
vt 0.7671875 0.904296875
vt 0.7671875 0.9375
vt 0.6828125 0.9375
vt 0.4296875 0.9375
vt 0.5140625 0.9375
vt 0.5140625 0.9453125
vt 0.4296875 0.9453125
vt 0.5140625 0.9375
vt 0.5984375 0.9375
vt 0.5984375 0.9453125
vt 0.5140625 0.9453125
vt 0.5984375 0.9375
vt 0.6828125 0.9375
vt 0.6828125 0.9453125
vt 0.5984375 0.9453125
vt 0.6828125 0.9375
vt 0.7671875 0.9375
vt 0.7671875 0.9453125
vt 0.6828125 0.9453125
vt 0.8515625 1
vt 0.7671875 1
vt 0.7671875 0.953125
vt 0.8515625 0.953125
vt 0.7671875 1
vt 0.6828125 1
vt 0.6828125 0.953125
vt 0.7671875 0.953125
vt 0.6828125 1
vt 0.5984375 1
vt 0.5984375 0.953125
vt 0.6828125 0.953125
vt 0.5984375 1
vt 0.5140625 1
vt 0.5140625 0.953125
vt 0.5984375 0.953125
vt 0.53125 0.703125
vt 0.615625 0.703125
vt 0.615625 0.7109375
vt 0.53125 0.7109375
vt 0.615625 0.703125
vt 0.7 0.703125
vt 0.7 0.7109375
vt 0.615625 0.7109375
vt 0.7 0.703125
vt 0.784375 0.703125
vt 0.784375 0.7109375
vt 0.7 0.7109375
vt 0.784375 0.703125
vt 0.86875 0.703125
vt 0.86875 0.7109375
vt 0.784375 0.7109375
vt 0.421875 0.6328125
vt 0.3375 0.6328125
vt 0.3375 0.375
vt 0.421875 0.375
vt 0.3375 0.6328125
vt 0.253125 0.6328125
vt 0.253125 0.375
vt 0.3375 0.375
vt 0.253125 0.6328125
vt 0.16875 0.6328125
vt 0.16875 0.375
vt 0.253125 0.375
vt 0.16875 0.6328125
vt 0.084375 0.6328125
vt 0.084375 0.375
vt 0.16875 0.375
vt 0.53125 0.5078125
vt 0.6171875 0.5078125
vt 0.6171875 0.515625
vt 0.53125 0.515625
vt 0.531640625 0.5234375
vt 0.616015625 0.5234375
vt 0.616015625 0.53125
vt 0.531640625 0.53125
vt 0.616015625 0.5234375
vt 0.700390625 0.5234375
vt 0.700390625 0.53125
vt 0.616015625 0.53125
vt 0.53125 0.65625
vt 0.53125 0.6015625
vt 0.5703125 0.6015625
vt 0.5703125 0.65625
vt 0.53125 0.59375
vt 0.53125 0.5390625
vt 0.5703125 0.5390625
vt 0.5703125 0.59375
vt 0.6171875 0.6640625
vt 0.6171875 0.6953125
vt 0.53125 0.6953125
vt 0.53125 0.6640625
vn 1 0 0
vn -1 0 0
vn 0 1 0
vn 0 -1 0
vn 0 0 1
vn 0 0 -1
vn 0 0 -1
vn -1 0 0
vn 0 0 1
vn 1 0 0
vn 0 0 -1
vn -1 0 0
vn 0 0 1
vn 1 0 0
vn 1 0 0
vn 0 -1 0
vn -1 0 0
vn 0 1 0
vn -1 0 0
vn 0 1 0
vn 1 0 0
vn 0 -1 0
vn 0 0 -1
vn 0 0 -1
vn 0 0 -1
vn 0 -1 0
vn 0 1 0
vn 0 -1 0
vn 0 -1 0
vn 0 -1 0
vn 0 1 0
vn 0 -1 0
vn 0 -1 0
vn 0 0 1
vn 0 0 1
vn 0 0 1
vn 0 0 1
vn 0 0 1
vn 0 0 1
vn 0 0 1
vn 0 0 1
vn 0 0 1
vn 0 0 1
vn 0 0 1
vn 0 1 0
vn 0 1 0
vn 0 1 0
vn 0 1 0
vn 0 1 0
vn 0 1 0
vn 0 1 0
vn 0 1 0
vn 0 0 -1
vn 0 0 -1
vn 0 0 -1
vn 0 0 -1
vn 0 -1 0
vn 0 -1 0
vn 0 -1 0
vn 0 -1 0
vn 0 0 -1
vn 0 0 -1
vn 0 0 -1
vn 0 0 -1
vn 0 1 0
vn 0 1 0
vn 0 1 0
vn -1 0 0
vn 1 0 0
vn 0 -1 0
usemtl m_af424dad-556a-7726-8030-bfed06e8710a
f 4/1/1 9/2/1 12/3/1 3/4/1
f 7/5/2 11/6/2 10/7/2 8/8/2
f 2/9/3 56/10/3 52/11/3 1/12/3
f 3/13/4 40/14/4 36/15/4 4/16/4
f 12/17/5 44/18/5 40/19/5 3/20/5
f 24/21/6 32/22/6 31/23/6 22/24/6
f 9/25/7 72/26/7 68/27/7 13/28/7
f 11/29/8 15/30/8 14/31/8 10/32/8
f 16/33/9 48/34/9 44/35/9 12/36/9
f 9/37/10 13/38/10 16/39/10 12/40/10
f 18/41/11 64/42/11 60/43/11 17/44/11
f 6/45/12 14/46/12 15/47/12 5/48/12
f 1/49/13 52/50/13 48/51/13 16/52/13
f 1/53/14 16/54/14 13/55/14 2/56/14
f 18/57/15 17/58/15 2/59/15 13/60/15
f 13/61/16 68/62/16 64/63/16 18/64/16
f 20/65/17 19/66/17 14/67/17 6/68/17
f 17/69/18 60/70/18 56/71/18 2/72/18
f 23/73/19 21/74/19 8/75/19 10/76/19
f 22/77/20 31/78/20 72/79/20 9/80/20
f 24/81/21 22/82/21 9/83/21 4/84/21
f 4/85/22 36/86/22 32/87/22 24/88/22
f 23/89/23 25/90/23 26/91/23 21/92/23
f 27/93/24 29/94/24 30/95/24 28/96/24
f 29/97/25 31/98/25 32/99/25 30/100/25
f 21/101/26 26/102/26 33/103/26 8/104/26
f 34/105/27 28/106/27 26/107/27 33/108/27
f 28/109/28 30/110/28 35/111/28 34/112/28
f 30/113/29 32/114/29 36/115/29 35/116/29
f 8/117/30 33/118/30 37/119/30 7/120/30
f 38/121/31 34/122/31 33/123/31 37/124/31
f 34/125/32 35/126/32 39/127/32 38/128/32
f 35/129/33 36/130/33 40/131/33 39/132/33
f 7/133/34 37/134/34 41/135/34 11/136/34
f 38/137/35 39/138/35 43/139/35 42/140/35
f 39/141/36 40/142/36 44/143/36 43/144/36
f 11/145/37 41/146/37 45/147/37 15/148/37
f 41/149/38 42/150/38 46/151/38 45/152/38
f 42/153/39 43/154/39 47/155/39 46/156/39
f 43/157/40 44/158/40 48/159/40 47/160/40
f 15/161/41 45/162/41 49/163/41 5/164/41
f 45/165/42 46/166/42 50/167/42 49/168/42
f 46/169/43 47/170/43 51/171/43 50/172/43
f 47/173/44 48/174/44 52/175/44 51/176/44
f 5/177/45 49/178/45 53/179/45 6/180/45
f 49/181/46 50/182/46 54/183/46 53/184/46
f 50/185/47 51/186/47 55/187/47 54/188/47
f 51/189/48 52/190/48 56/191/48 55/192/48
f 6/193/49 53/194/49 57/195/49 20/196/49
f 53/197/50 54/198/50 58/199/50 57/200/50
f 54/201/51 55/202/51 59/203/51 58/204/51
f 55/205/52 56/206/52 60/207/52 59/208/52
f 20/209/53 57/210/53 61/211/53 19/212/53
f 57/213/54 58/214/54 62/215/54 61/216/54
f 58/217/55 59/218/55 63/219/55 62/220/55
f 59/221/56 60/222/56 64/223/56 63/224/56
f 19/225/57 61/226/57 65/227/57 14/228/57
f 61/229/58 62/230/58 66/231/58 65/232/58
f 62/233/59 63/234/59 67/235/59 66/236/59
f 63/237/60 64/238/60 68/239/60 67/240/60
f 14/241/61 65/242/61 69/243/61 10/244/61
f 65/245/62 66/246/62 70/247/62 69/248/62
f 66/249/63 67/250/63 71/251/63 70/252/63
f 67/253/64 68/254/64 72/255/64 71/256/64
f 10/257/65 69/258/65 25/259/65 23/260/65
f 70/261/66 71/262/66 29/263/66 27/264/66
f 71/265/67 72/266/67 31/267/67 29/268/67
f 27/269/68 28/270/68 38/271/68 42/272/68
f 41/273/69 37/274/69 26/275/69 25/276/69
f 70/277/70 42/278/70 41/279/70 69/280/70