# Made in Blockbench 4.9.4
mtllib VENT_PIPE_ANGLE.mtl

o cuboid
v 0.28125 0.453125 -0.21875
v 0.28125 0.015625 -0.21875
v -0.375 0.453125 -0.21875
v -0.375 0.015625 -0.21875
v -0.40625 0.484375 0.78125
v -0.40625 0.484375 -0.21875
v -0.40625 -0.015625 0.78125
v -0.40625 -0.015625 -0.21875
v 0.3125 -0.015625 0.78125
v 0.3125 -0.015625 -0.21875
v 0.3125 0.484375 0.78125
v 0.3125 0.484375 -0.21875
vt 0.65625 0.46875
vt 0.65625 0.59375
vt 0.40625 0.59375
vt 0.40625 0.46875
vt 0.25 0.46875
vt 0 0.46875
vt 0 0.34375
vt 0.25 0.34375
vt 0.1875 0.75
vt 0.1875 1
vt 0 1
vt 0 0.75
vt 0.203125 0.75
vt 0.390625 0.75
vt 0.390625 1
vt 0.203125 1
vt 0.1796875 0.203125
vt 0.1796875 0.328125
vt 0.171875 0.3203125
vt 0.171875 0.2109375
vt 0 0.203125
vt 0.1796875 0.203125
vt 0.171875 0.2109375
vt 0.0078125 0.2109375
vt 0.1796875 0.328125
vt 0 0.328125
vt 0.0078125 0.3203125
vt 0.171875 0.3203125
vt 0 0.328125
vt 0 0.203125
vt 0.0078125 0.2109375
vt 0.0078125 0.3203125
vn -1 0 0
vn 1 0 0
vn 0 -1 0
vn 0 1 0
vn 0 0 -1
vn 0 0 -1
vn 0 0 -1
vn 0 0 -1
usemtl m_41dda362-361a-8b2c-c278-5e7b57ca28ea
f 9/1/1 11/2/1 12/3/1 10/4/1
f 6/5/2 5/6/2 7/7/2 8/8/2
f 12/9/3 11/10/3 5/11/3 6/12/3
f 7/13/4 9/14/4 10/15/4 8/16/4
f 8/17/5 6/18/5 3/19/5 4/20/5
f 10/21/6 8/22/6 4/23/6 2/24/6
f 6/25/7 12/26/7 1/27/7 3/28/7
f 12/29/8 10/30/8 2/31/8 1/32/8
o cuboid
v 1.3124999999999998 0.453125 0.8125000000000003
v 1.3124999999999998 0.015625 0.8125000000000003
v 1.3124999999999998 0.453125 1.4687500000000002
v 1.3124999999999998 0.015625 1.4687500000000002
v 1.3124999999999996 0.484375 1.5000000000000002
v 0.31249999999999967 0.484375 1.5
v 1.3124999999999996 -0.015625 1.5000000000000002
v 0.31249999999999967 -0.015625 1.5
v 1.3124999999999998 -0.015625 0.7812500000000003
v 0.31249999999999983 -0.015625 0.7812500000000001
v 1.3124999999999998 0.484375 0.7812500000000003
v 0.31249999999999983 0.484375 0.7812500000000001
vt 0.515625 0.328125
vt 0.515625 0.453125
vt 0.265625 0.453125
vt 0.265625 0.328125
vt 0.78125 0.453125
vt 0.53125 0.453125
vt 0.53125 0.328125
vt 0.78125 0.328125
vt 0.1875 0.484375
vt 0.1875 0.734375
vt 0 0.734375
vt 0 0.484375
vt 0.203125 0.484375
vt 0.390625 0.484375
vt 0.390625 0.734375
vt 0.203125 0.734375
vt 0.671875 0.71875
vt 0.671875 0.59375
vt 0.6796875 0.6015625
vt 0.6796875 0.7109375
vt 0.671875 0.59375
vt 0.8515625 0.59375
vt 0.84375 0.6015625
vt 0.6796875 0.6015625
vt 0.8515625 0.71875
vt 0.671875 0.71875
vt 0.6796875 0.7109375
vt 0.84375 0.7109375
vt 0.8515625 0.59375
vt 0.8515625 0.71875
vt 0.84375 0.7109375
vt 0.84375 0.6015625
vn -2.220446049250313e-16 0 1
vn 2.220446049250313e-16 0 -1
vn 0 -1 0
vn 0 1 0
vn 1 0 2.220446049250313e-16
vn 1 0 2.220446049250313e-16
vn 1 0 2.220446049250313e-16
vn 1 0 2.220446049250313e-16
usemtl m_41dda362-361a-8b2c-c278-5e7b57ca28ea
f 21/33/9 23/34/9 24/35/9 22/36/9
f 18/37/10 17/38/10 19/39/10 20/40/10
f 24/41/11 23/42/11 17/43/11 18/44/11
f 19/45/12 21/46/12 22/47/12 20/48/12
f 17/49/13 19/50/13 16/51/13 15/52/13
f 19/53/14 21/54/14 14/55/14 16/56/14
f 23/57/15 17/58/15 15/59/15 13/60/15
f 21/61/16 23/62/16 13/63/16 14/64/16
o cuboid
v 0.3125 0.484375 1.5
v 0.3125 0.484375 0.78125
v 0.3125 -0.015625 1.5
v 0.3125 -0.015625 0.78125
v -0.40625 0.484375 1.5
v -0.40625 0.484375 0.78125
v -0.40625 -0.015625 1.5
v -0.40625 -0.015625 0.78125
vt 0.796875 1
vt 0.609375 1
vt 0.609375 0.875
vt 0.796875 0.875
vt 0.59375 0.8125
vt 0.59375 1
vt 0.40625 1
vt 0.40625 0.8125
vt 0.40625 0.609375
vt 0.59375 0.609375
vt 0.59375 0.796875
vt 0.40625 0.796875
vt 0.796875 0.859375
vt 0.609375 0.859375
vt 0.609375 0.734375
vt 0.796875 0.734375
vn 1 0 0
vn 0 -1 0
vn 0 1 0
vn 0 0 -1
usemtl m_41dda362-361a-8b2c-c278-5e7b57ca28ea
f 30/65/17 29/66/17 31/67/17 32/68/17
f 26/69/18 25/70/18 29/71/18 30/72/18
f 31/73/19 27/74/19 28/75/19 32/76/19
f 29/77/20 25/78/20 27/79/20 31/80/20